<svg xmlns="http://www.w3.org/2000/svg" xmlns:v="https://svgstorm.com"
viewBox = "0 0 1600 1600"
width="1600"
height="1600">
<g fill="None" fill-opacity="0.0" stroke="#FEFEFA" stroke-opacity="1.00" stroke-width="0.3"><path d="
M 0.00 1600.00 
L 1600.00 1600.00
L 1600.00 0.00
L 0.00 0.00
L 0.00 1600.00
M 1107.00 191.00 
C 1108.94 202.40 1111.02 214.59 1113.00 226.00 C 1114.97 237.41 1118.37 248.73 1119.93 260.07 C 1121.49 271.42 1125.96 283.84 1135.75 274.75 C 1145.54 265.67 1149.63 264.81 1159.00 257.00
C 1150.98 266.67 1149.51 270.98 1139.75 280.75 C 1129.98 290.51 1143.94 295.86 1156.02 296.98 C 1168.11 298.09 1181.85 301.47 1194.22 302.78 C 1206.59 304.09 1220.30 306.41 1232.00 309.00
C 1207.60 310.25 1184.75 317.98 1160.78 320.78 C 1136.81 323.57 1122.46 338.56 1119.02 362.02 C 1115.59 385.48 1110.14 409.20 1106.00 432.00
C 1104.31 407.76 1097.71 384.20 1094.67 360.33 C 1091.63 336.46 1075.31 322.83 1052.00 320.00 C 1028.69 317.17 1003.74 311.00 980.00 309.00
C 1003.02 307.17 1026.73 299.43 1050.07 298.07 C 1073.42 296.72 1090.91 283.65 1094.00 260.00 C 1097.08 236.35 1103.35 214.04 1107.00 191.00
M 645.00 908.00 
C 645.00 916.67 645.00 925.33 645.00 934.00
C 645.00 978.73 657.37 1022.08 677.00 1061.00
C 578.90 1046.61 487.61 1112.05 446.00 1197.00
C 446.82 1196.22 451.93 1192.77 454.00 1191.00
C 468.32 1178.76 478.98 1166.56 493.70 1154.70 C 508.41 1142.83 519.88 1130.55 536.75 1120.75 C 553.61 1110.94 568.32 1101.57 588.22 1095.22 C 608.13 1088.88 633.07 1085.19 656.00 1086.00 C 678.93 1086.81 702.30 1090.69 725.22 1093.78 C 748.14 1096.87 773.95 1090.28 796.00 1089.00 C 818.06 1087.73 841.05 1075.88 863.07 1082.93 C 885.10 1089.97 877.21 1119.29 862.25 1131.25 C 847.29 1143.21 830.72 1152.66 811.32 1157.32 C 791.93 1161.98 765.68 1165.40 745.99 1168.99 C 726.30 1172.59 710.74 1182.87 697.00 1197.00
C 724.61 1185.36 761.74 1187.05 792.00 1188.00 C 822.26 1188.95 851.86 1180.57 877.23 1169.23 C 902.60 1157.89 923.32 1147.64 946.08 1134.08 C 968.85 1120.52 981.53 1100.83 997.25 1081.25 C 1012.98 1061.68 1026.22 1040.63 1043.25 1022.25 C 1060.27 1003.86 1081.72 978.36 1110.07 990.93 C 1138.43 1003.49 1120.60 1040.03 1106.08 1059.08 C 1091.56 1078.14 1079.93 1102.44 1065.23 1122.23 C 1050.53 1142.02 1038.01 1164.02 1020.75 1182.75 C 1003.49 1201.48 983.01 1213.88 962.25 1228.25 C 941.50 1242.63 922.65 1256.30 900.75 1270.75 C 878.86 1285.21 862.46 1299.51 836.78 1310.78 C 811.10 1322.04 770.04 1316.40 741.00 1316.00
C 735.28 1316.00 728.97 1315.48 724.00 1315.00
C 642.46 1315.00 554.26 1314.44 503.00 1388.00
C 440.44 1373.95 376.73 1325.83 366.00 1259.00
C 362.14 1237.46 362.82 1215.22 369.00 1194.00
C 382.24 1148.54 426.11 1107.68 476.00 1111.00
C 477.25 1054.24 531.75 1004.18 589.00 1009.00
C 559.62 960.79 546.79 900.57 547.00 844.00 C 547.21 787.43 565.91 727.49 591.92 680.92 C 617.93 634.36 645.33 600.85 682.75 563.75 C 720.17 526.65 755.89 500.56 798.70 472.70 C 841.50 444.83 885.23 419.76 932.23 398.23 C 979.23 376.70 1032.54 353.52 1082.00 342.00
C 985.28 413.02 896.55 481.74 812.25 573.25 C 727.95 664.75 648.20 779.75 645.00 908.00
M 790.00 798.00 
C 782.41 805.59 774.54 813.46 767.00 821.00
C 738.89 853.89 719.30 880.53 704.67 921.67 C 690.04 962.82 683.05 1019.42 695.00 1064.00
C 681.31 1051.99 677.18 1033.54 673.22 1014.78 C 669.27 996.02 667.27 969.09 668.00 949.00 C 668.73 928.91 672.43 905.57 676.98 886.98 C 681.52 868.38 687.86 850.76 694.93 833.93 C 701.99 817.09 710.36 802.49 719.31 787.31 C 728.25 772.12 737.91 759.10 748.25 745.25 C 758.60 731.41 770.21 720.39 781.00 707.00
C 788.49 698.23 797.28 689.45 806.00 682.00
C 897.79 603.56 1001.66 526.27 1058.00 419.00
C 1057.02 461.58 1046.23 514.44 1033.07 554.07 C 1019.92 593.71 1000.36 625.49 972.75 655.75 C 945.15 686.01 914.79 705.49 882.77 727.77 C 850.75 750.05 818.91 770.80 790.00 798.00
M 970.00 844.00 
C 965.43 849.79 959.54 855.26 954.00 860.00
C 892.72 912.37 800.27 919.82 755.00 993.00
C 767.07 984.55 779.49 978.42 794.07 975.07 C 808.65 971.72 831.21 972.57 844.67 977.33 C 858.13 982.08 871.23 988.73 880.75 998.25 C 890.27 1007.76 904.36 1019.55 897.23 1031.23 C 890.10 1042.91 881.00 1053.25 874.00 1065.00
C 869.21 1063.39 864.45 1061.35 859.00 1062.00
C 853.01 1061.88 847.00 1062.00 841.00 1062.00
C 828.64 1062.00 817.09 1064.16 805.00 1066.00 C 792.91 1067.84 780.51 1068.99 768.00 1070.00 C 755.49 1071.01 742.06 1071.33 729.93 1069.07 C 717.79 1066.81 703.85 1069.25 704.22 1054.78 C 704.59 1040.31 703.82 1028.41 705.78 1015.78 C 707.74 1003.15 709.50 992.87 712.78 981.78 C 716.05 970.68 718.77 961.11 723.31 951.31 C 727.84 941.51 731.88 933.96 737.25 925.25 C 742.63 916.55 747.49 908.54 753.75 900.75 C 760.02 892.97 765.71 885.80 772.75 878.75 C 779.80 871.71 785.75 865.44 793.25 859.25 C 800.75 853.05 808.08 846.49 816.23 841.23 C 824.38 835.97 831.94 829.31 840.25 824.25 C 848.55 819.18 857.34 813.91 865.70 808.70 C 874.06 803.48 882.75 799.21 891.23 794.23 C 899.71 789.25 908.46 784.04 916.70 778.70 C 924.93 773.35 933.19 767.68 941.23 762.23 C 949.27 756.78 956.33 751.09 963.75 744.75 C 971.17 738.41 977.63 731.68 984.75 724.75 C 991.87 717.83 997.46 710.07 1003.30 702.30 C 1009.15 694.54 1014.45 685.66 1020.00 678.00
C 1018.14 737.29 1008.77 797.75 970.00 844.00
M 1057.00 986.00 
C 1023.97 1010.48 1003.05 1043.12 978.23 1075.23 C 953.41 1107.34 917.27 1132.08 880.00 1146.00
C 899.34 1124.62 920.31 1104.71 936.30 1081.30 C 952.29 1057.89 971.05 1033.33 984.92 1008.92 C 998.78 984.51 1034.87 954.88 1057.00 986.00
M 893.00 1082.00 
C 891.29 1079.13 887.64 1076.23 885.00 1074.00
C 885.45 1070.25 890.30 1068.76 891.00 1065.00
C 901.89 1048.47 912.50 1034.01 923.25 1017.25 C 934.01 1000.49 956.05 984.83 976.00 997.00
C 950.85 1033.35 928.79 1072.06 897.00 1104.00
C 897.66 1096.15 895.76 1088.93 893.00 1082.00 Z"/>
</g>
<g fill="None" fill-opacity="0.0" stroke="#D4A24A" stroke-opacity="1.00" stroke-width="0.3"><path d="
M 1107.00 191.00 
C 1103.35 214.04 1097.08 236.35 1094.00 260.00 C 1090.91 283.65 1073.42 296.72 1050.07 298.07 C 1026.73 299.43 1003.02 307.17 980.00 309.00
C 1003.74 311.00 1028.69 317.17 1052.00 320.00 C 1075.31 322.83 1091.63 336.46 1094.67 360.33 C 1097.71 384.20 1104.31 407.76 1106.00 432.00
C 1110.14 409.20 1115.59 385.48 1119.02 362.02 C 1122.46 338.56 1136.81 323.57 1160.78 320.78 C 1184.75 317.98 1207.60 310.25 1232.00 309.00
C 1220.30 306.41 1206.59 304.09 1194.22 302.78 C 1181.85 301.47 1168.11 298.09 1156.02 296.98 C 1143.94 295.86 1129.98 290.51 1139.75 280.75 C 1149.51 270.98 1150.98 266.67 1159.00 257.00
C 1149.63 264.81 1145.54 265.67 1135.75 274.75 C 1125.96 283.84 1121.49 271.42 1119.93 260.07 C 1118.37 248.73 1114.97 237.41 1113.00 226.00 C 1111.02 214.59 1108.94 202.40 1107.00 191.00 Z"/>
</g>
<g fill="None" fill-opacity="0.0" stroke="#184A75" stroke-opacity="1.00" stroke-width="0.3"><path d="
M 369.00 1194.00 
C 369.33 1193.40 370.26 1192.33 371.00 1192.00
C 364.10 1212.94 364.44 1237.79 366.00 1259.00
C 376.73 1325.83 440.44 1373.95 503.00 1388.00
C 554.26 1314.44 642.46 1315.00 724.00 1315.00
C 729.72 1315.00 736.03 1315.52 741.00 1316.00
C 770.04 1316.40 811.10 1322.04 836.78 1310.78 C 862.46 1299.51 878.86 1285.21 900.75 1270.75 C 922.65 1256.30 941.50 1242.63 962.25 1228.25 C 983.01 1213.88 1003.49 1201.48 1020.75 1182.75 C 1038.01 1164.02 1050.53 1142.02 1065.23 1122.23 C 1079.93 1102.44 1091.56 1078.14 1106.08 1059.08 C 1120.60 1040.03 1138.43 1003.49 1110.07 990.93 C 1081.72 978.36 1060.27 1003.86 1043.25 1022.25 C 1026.22 1040.63 1012.98 1061.68 997.25 1081.25 C 981.53 1100.83 968.85 1120.52 946.08 1134.08 C 923.32 1147.64 902.60 1157.89 877.23 1169.23 C 851.86 1180.57 822.26 1188.95 792.00 1188.00 C 761.74 1187.05 724.61 1185.36 697.00 1197.00
C 710.74 1182.87 726.30 1172.59 745.99 1168.99 C 765.68 1165.40 791.93 1161.98 811.32 1157.32 C 830.72 1152.66 847.29 1143.21 862.25 1131.25 C 877.21 1119.29 885.10 1089.97 863.07 1082.93 C 841.05 1075.88 818.06 1087.73 796.00 1089.00 C 773.95 1090.28 748.14 1096.87 725.22 1093.78 C 702.30 1090.69 678.93 1086.81 656.00 1086.00 C 633.07 1085.19 608.13 1088.88 588.22 1095.22 C 568.32 1101.57 553.61 1110.94 536.75 1120.75 C 519.88 1130.55 508.41 1142.83 493.70 1154.70 C 478.98 1166.56 468.32 1178.76 454.00 1191.00
C 450.95 1194.05 448.28 1198.89 444.00 1200.00
C 443.73 1198.72 444.77 1197.28 446.00 1197.00
C 487.61 1112.05 578.90 1046.61 677.00 1061.00
C 657.37 1022.08 645.00 978.73 645.00 934.00
C 644.21 925.82 644.21 916.11 645.00 908.00
C 648.20 779.75 727.95 664.75 812.25 573.25 C 896.55 481.74 985.28 413.02 1082.00 342.00
C 1032.54 353.52 979.23 376.70 932.23 398.23 C 885.23 419.76 841.50 444.83 798.70 472.70 C 755.89 500.56 720.17 526.65 682.75 563.75 C 645.33 600.85 617.93 634.36 591.92 680.92 C 565.91 727.49 547.21 787.43 547.00 844.00 C 546.79 900.57 559.62 960.79 589.00 1009.00
C 531.75 1004.18 477.25 1054.24 476.00 1111.00
C 426.11 1107.68 382.24 1148.54 369.00 1194.00 Z"/>
</g>
<g fill="None" fill-opacity="0.0" stroke="#194A74" stroke-opacity="1.00" stroke-width="0.3"><path d="
M 806.00 682.00 
C 797.75 690.25 789.20 698.80 781.00 707.00
C 770.21 720.39 758.60 731.41 748.25 745.25 C 737.91 759.10 728.25 772.12 719.31 787.31 C 710.36 802.49 701.99 817.09 694.93 833.93 C 687.86 850.76 681.52 868.38 676.98 886.98 C 672.43 905.57 668.73 928.91 668.00 949.00 C 667.27 969.09 669.27 996.02 673.22 1014.78 C 677.18 1033.54 681.31 1051.99 695.00 1064.00
C 683.05 1019.42 690.04 962.82 704.67 921.67 C 719.30 880.53 738.89 853.89 767.00 821.00
C 773.90 812.92 781.97 804.86 790.00 798.00
C 818.91 770.80 850.75 750.05 882.77 727.77 C 914.79 705.49 945.15 686.01 972.75 655.75 C 1000.36 625.49 1019.92 593.71 1033.07 554.07 C 1046.23 514.44 1057.02 461.58 1058.00 419.00
C 1001.66 526.27 897.79 603.56 806.00 682.00 Z"/>
</g>
<g fill="None" fill-opacity="0.0" stroke="#184974" stroke-opacity="1.00" stroke-width="0.3"><path d="
M 841.00 1062.00 
C 846.69 1061.45 853.35 1061.32 859.00 1062.00
C 864.45 1061.35 869.21 1063.39 874.00 1065.00
C 881.00 1053.25 890.10 1042.91 897.23 1031.23 C 904.36 1019.55 890.27 1007.76 880.75 998.25 C 871.23 988.73 858.13 982.08 844.67 977.33 C 831.21 972.57 808.65 971.72 794.07 975.07 C 779.49 978.42 767.07 984.55 755.00 993.00
C 800.27 919.82 892.72 912.37 954.00 860.00
C 959.19 854.81 965.08 849.32 970.00 844.00
C 1008.77 797.75 1018.14 737.29 1020.00 678.00
C 1014.45 685.66 1009.15 694.54 1003.30 702.30 C 997.46 710.07 991.87 717.83 984.75 724.75 C 977.63 731.68 971.17 738.41 963.75 744.75 C 956.33 751.09 949.27 756.78 941.23 762.23 C 933.19 767.68 924.93 773.35 916.70 778.70 C 908.46 784.04 899.71 789.25 891.23 794.23 C 882.75 799.21 874.06 803.48 865.70 808.70 C 857.34 813.91 848.55 819.18 840.25 824.25 C 831.94 829.31 824.38 835.97 816.23 841.23 C 808.08 846.49 800.75 853.05 793.25 859.25 C 785.75 865.44 779.80 871.71 772.75 878.75 C 765.71 885.80 760.02 892.97 753.75 900.75 C 747.49 908.54 742.63 916.55 737.25 925.25 C 731.88 933.96 727.84 941.51 723.31 951.31 C 718.77 961.11 716.05 970.68 712.78 981.78 C 709.50 992.87 707.74 1003.15 705.78 1015.78 C 703.82 1028.41 704.59 1040.31 704.22 1054.78 C 703.85 1069.25 717.79 1066.81 729.93 1069.07 C 742.06 1071.33 755.49 1071.01 768.00 1070.00 C 780.51 1068.99 792.91 1067.84 805.00 1066.00 C 817.09 1064.16 828.64 1062.00 841.00 1062.00 Z"/>
</g>
<g fill="None" fill-opacity="0.0" stroke="#8099A6" stroke-opacity="1.00" stroke-width="0.3"><path d="
M 781.00 707.00 
C 789.20 698.80 797.75 690.25 806.00 682.00
C 797.28 689.45 788.49 698.23 781.00 707.00 Z"/>
</g>
<g fill="None" fill-opacity="0.0" stroke="#8DA4B2" stroke-opacity="1.00" stroke-width="0.3"><path d="
M 767.00 821.00 
C 774.54 813.46 782.41 805.59 790.00 798.00
C 781.97 804.86 773.90 812.92 767.00 821.00 Z"/>
</g>
<g fill="None" fill-opacity="0.0" stroke="#86A4AF" stroke-opacity="1.00" stroke-width="0.3"><path d="
M 954.00 860.00 
C 959.54 855.26 965.43 849.79 970.00 844.00
C 965.08 849.32 959.19 854.81 954.00 860.00 Z"/>
</g>
<g fill="None" fill-opacity="0.0" stroke="#98ABBD" stroke-opacity="1.00" stroke-width="0.3"><path d="
M 645.00 934.00 
C 645.00 925.33 645.00 916.67 645.00 908.00
C 644.21 916.11 644.21 925.82 645.00 934.00 Z"/>
</g>
<g fill="None" fill-opacity="0.0" stroke="#16456F" stroke-opacity="1.00" stroke-width="0.3"><path d="
M 1057.00 986.00 
C 1034.87 954.88 998.78 984.51 984.92 1008.92 C 971.05 1033.33 952.29 1057.89 936.30 1081.30 C 920.31 1104.71 899.34 1124.62 880.00 1146.00
C 917.27 1132.08 953.41 1107.34 978.23 1075.23 C 1003.05 1043.12 1023.97 1010.48 1057.00 986.00 Z"/>
</g>
<g fill="None" fill-opacity="0.0" stroke="#174772" stroke-opacity="1.00" stroke-width="0.3"><path d="
M 891.00 1065.00 
C 891.63 1062.33 892.74 1069.80 890.00 1071.00
C 897.55 1069.77 895.63 1077.66 893.00 1082.00
C 895.76 1088.93 897.66 1096.15 897.00 1104.00
C 928.79 1072.06 950.85 1033.35 976.00 997.00
C 956.05 984.83 934.01 1000.49 923.25 1017.25 C 912.50 1034.01 901.89 1048.47 891.00 1065.00 Z"/>
</g>
<g fill="None" fill-opacity="0.0" stroke="#A5BABF" stroke-opacity="1.00" stroke-width="0.3"><path d="
M 841.00 1062.00 
C 847.00 1062.00 853.01 1061.88 859.00 1062.00
C 853.35 1061.32 846.69 1061.45 841.00 1062.00 Z"/>
</g>
<g fill="None" fill-opacity="0.0" stroke="#1D3550" stroke-opacity="1.00" stroke-width="0.3"><path d="
M 891.00 1065.00 
C 890.30 1068.76 885.45 1070.25 885.00 1074.00
C 887.64 1076.23 891.29 1079.13 893.00 1082.00
C 895.63 1077.66 897.55 1069.77 890.00 1071.00
C 892.74 1069.80 891.63 1062.33 891.00 1065.00 Z"/>
</g>
<g fill="None" fill-opacity="0.0" stroke="#A0B6C4" stroke-opacity="1.00" stroke-width="0.3"><path d="
M 446.00 1197.00 
C 444.77 1197.28 443.73 1198.72 444.00 1200.00
C 448.28 1198.89 450.95 1194.05 454.00 1191.00
C 451.93 1192.77 446.82 1196.22 446.00 1197.00 Z"/>
</g>
<g fill="None" fill-opacity="0.0" stroke="#22385C" stroke-opacity="1.00" stroke-width="0.3"><path d="
M 369.00 1194.00 
C 362.82 1215.22 362.14 1237.46 366.00 1259.00
C 364.44 1237.79 364.10 1212.94 371.00 1192.00
C 370.26 1192.33 369.33 1193.40 369.00 1194.00 Z"/>
</g>
<g fill="None" fill-opacity="0.0" stroke="#688492" stroke-opacity="1.00" stroke-width="0.3"><path d="
M 741.00 1316.00 
C 736.03 1315.52 729.72 1315.00 724.00 1315.00
C 728.97 1315.48 735.28 1316.00 741.00 1316.00 Z"/>
</g>
<g fill="#FEFEFA" fill-opacity="1.00" stroke="None">
<path d="
M 0.00 1600.00 
L 1600.00 1600.00
L 1600.00 0.00
L 0.00 0.00
L 0.00 1600.00
M 1107.00 191.00 
C 1108.94 202.40 1111.02 214.59 1113.00 226.00 C 1114.97 237.41 1118.37 248.73 1119.93 260.07 C 1121.49 271.42 1125.96 283.84 1135.75 274.75 C 1145.54 265.67 1149.63 264.81 1159.00 257.00
C 1150.98 266.67 1149.51 270.98 1139.75 280.75 C 1129.98 290.51 1143.94 295.86 1156.02 296.98 C 1168.11 298.09 1181.85 301.47 1194.22 302.78 C 1206.59 304.09 1220.30 306.41 1232.00 309.00
C 1207.60 310.25 1184.75 317.98 1160.78 320.78 C 1136.81 323.57 1122.46 338.56 1119.02 362.02 C 1115.59 385.48 1110.14 409.20 1106.00 432.00
C 1104.31 407.76 1097.71 384.20 1094.67 360.33 C 1091.63 336.46 1075.31 322.83 1052.00 320.00 C 1028.69 317.17 1003.74 311.00 980.00 309.00
C 1003.02 307.17 1026.73 299.43 1050.07 298.07 C 1073.42 296.72 1090.91 283.65 1094.00 260.00 C 1097.08 236.35 1103.35 214.04 1107.00 191.00
M 645.00 908.00 
C 645.00 916.67 645.00 925.33 645.00 934.00
C 645.00 978.73 657.37 1022.08 677.00 1061.00
C 578.90 1046.61 487.61 1112.05 446.00 1197.00
C 446.82 1196.22 451.93 1192.77 454.00 1191.00
C 468.32 1178.76 478.98 1166.56 493.70 1154.70 C 508.41 1142.83 519.88 1130.55 536.75 1120.75 C 553.61 1110.94 568.32 1101.57 588.22 1095.22 C 608.13 1088.88 633.07 1085.19 656.00 1086.00 C 678.93 1086.81 702.30 1090.69 725.22 1093.78 C 748.14 1096.87 773.95 1090.28 796.00 1089.00 C 818.06 1087.73 841.05 1075.88 863.07 1082.93 C 885.10 1089.97 877.21 1119.29 862.25 1131.25 C 847.29 1143.21 830.72 1152.66 811.32 1157.32 C 791.93 1161.98 765.68 1165.40 745.99 1168.99 C 726.30 1172.59 710.74 1182.87 697.00 1197.00
C 724.61 1185.36 761.74 1187.05 792.00 1188.00 C 822.26 1188.95 851.86 1180.57 877.23 1169.23 C 902.60 1157.89 923.32 1147.64 946.08 1134.08 C 968.85 1120.52 981.53 1100.83 997.25 1081.25 C 1012.98 1061.68 1026.22 1040.63 1043.25 1022.25 C 1060.27 1003.86 1081.72 978.36 1110.07 990.93 C 1138.43 1003.49 1120.60 1040.03 1106.08 1059.08 C 1091.56 1078.14 1079.93 1102.44 1065.23 1122.23 C 1050.53 1142.02 1038.01 1164.02 1020.75 1182.75 C 1003.49 1201.48 983.01 1213.88 962.25 1228.25 C 941.50 1242.63 922.65 1256.30 900.75 1270.75 C 878.86 1285.21 862.46 1299.51 836.78 1310.78 C 811.10 1322.04 770.04 1316.40 741.00 1316.00
C 735.28 1316.00 728.97 1315.48 724.00 1315.00
C 642.46 1315.00 554.26 1314.44 503.00 1388.00
C 440.44 1373.95 376.73 1325.83 366.00 1259.00
C 362.14 1237.46 362.82 1215.22 369.00 1194.00
C 382.24 1148.54 426.11 1107.68 476.00 1111.00
C 477.25 1054.24 531.75 1004.18 589.00 1009.00
C 559.62 960.79 546.79 900.57 547.00 844.00 C 547.21 787.43 565.91 727.49 591.92 680.92 C 617.93 634.36 645.33 600.85 682.75 563.75 C 720.17 526.65 755.89 500.56 798.70 472.70 C 841.50 444.83 885.23 419.76 932.23 398.23 C 979.23 376.70 1032.54 353.52 1082.00 342.00
C 985.28 413.02 896.55 481.74 812.25 573.25 C 727.95 664.75 648.20 779.75 645.00 908.00
M 790.00 798.00 
C 782.41 805.59 774.54 813.46 767.00 821.00
C 738.89 853.89 719.30 880.53 704.67 921.67 C 690.04 962.82 683.05 1019.42 695.00 1064.00
C 681.31 1051.99 677.18 1033.54 673.22 1014.78 C 669.27 996.02 667.27 969.09 668.00 949.00 C 668.73 928.91 672.43 905.57 676.98 886.98 C 681.52 868.38 687.86 850.76 694.93 833.93 C 701.99 817.09 710.36 802.49 719.31 787.31 C 728.25 772.12 737.91 759.10 748.25 745.25 C 758.60 731.41 770.21 720.39 781.00 707.00
C 788.49 698.23 797.28 689.45 806.00 682.00
C 897.79 603.56 1001.66 526.27 1058.00 419.00
C 1057.02 461.58 1046.23 514.44 1033.07 554.07 C 1019.92 593.71 1000.36 625.49 972.75 655.75 C 945.15 686.01 914.79 705.49 882.77 727.77 C 850.75 750.05 818.91 770.80 790.00 798.00
M 970.00 844.00 
C 965.43 849.79 959.54 855.26 954.00 860.00
C 892.72 912.37 800.27 919.82 755.00 993.00
C 767.07 984.55 779.49 978.42 794.07 975.07 C 808.65 971.72 831.21 972.57 844.67 977.33 C 858.13 982.08 871.23 988.73 880.75 998.25 C 890.27 1007.76 904.36 1019.55 897.23 1031.23 C 890.10 1042.91 881.00 1053.25 874.00 1065.00
C 869.21 1063.39 864.45 1061.35 859.00 1062.00
C 853.01 1061.88 847.00 1062.00 841.00 1062.00
C 828.64 1062.00 817.09 1064.16 805.00 1066.00 C 792.91 1067.84 780.51 1068.99 768.00 1070.00 C 755.49 1071.01 742.06 1071.33 729.93 1069.07 C 717.79 1066.81 703.85 1069.25 704.22 1054.78 C 704.59 1040.31 703.82 1028.41 705.78 1015.78 C 707.74 1003.15 709.50 992.87 712.78 981.78 C 716.05 970.68 718.77 961.11 723.31 951.31 C 727.84 941.51 731.88 933.96 737.25 925.25 C 742.63 916.55 747.49 908.54 753.75 900.75 C 760.02 892.97 765.71 885.80 772.75 878.75 C 779.80 871.71 785.75 865.44 793.25 859.25 C 800.75 853.05 808.08 846.49 816.23 841.23 C 824.38 835.97 831.94 829.31 840.25 824.25 C 848.55 819.18 857.34 813.91 865.70 808.70 C 874.06 803.48 882.75 799.21 891.23 794.23 C 899.71 789.25 908.46 784.04 916.70 778.70 C 924.93 773.35 933.19 767.68 941.23 762.23 C 949.27 756.78 956.33 751.09 963.75 744.75 C 971.17 738.41 977.63 731.68 984.75 724.75 C 991.87 717.83 997.46 710.07 1003.30 702.30 C 1009.15 694.54 1014.45 685.66 1020.00 678.00
C 1018.14 737.29 1008.77 797.75 970.00 844.00
M 1057.00 986.00 
C 1023.97 1010.48 1003.05 1043.12 978.23 1075.23 C 953.41 1107.34 917.27 1132.08 880.00 1146.00
C 899.34 1124.62 920.31 1104.71 936.30 1081.30 C 952.29 1057.89 971.05 1033.33 984.92 1008.92 C 998.78 984.51 1034.87 954.88 1057.00 986.00
M 893.00 1082.00 
C 891.29 1079.13 887.64 1076.23 885.00 1074.00
C 885.45 1070.25 890.30 1068.76 891.00 1065.00
C 901.89 1048.47 912.50 1034.01 923.25 1017.25 C 934.01 1000.49 956.05 984.83 976.00 997.00
C 950.85 1033.35 928.79 1072.06 897.00 1104.00
C 897.66 1096.15 895.76 1088.93 893.00 1082.00 Z"/>
</g>
<g fill="#D4A24A" fill-opacity="1.00" stroke="None">
<path d="
M 1107.00 191.00 
C 1103.35 214.04 1097.08 236.35 1094.00 260.00 C 1090.91 283.65 1073.42 296.72 1050.07 298.07 C 1026.73 299.43 1003.02 307.17 980.00 309.00
C 1003.74 311.00 1028.69 317.17 1052.00 320.00 C 1075.31 322.83 1091.63 336.46 1094.67 360.33 C 1097.71 384.20 1104.31 407.76 1106.00 432.00
C 1110.14 409.20 1115.59 385.48 1119.02 362.02 C 1122.46 338.56 1136.81 323.57 1160.78 320.78 C 1184.75 317.98 1207.60 310.25 1232.00 309.00
C 1220.30 306.41 1206.59 304.09 1194.22 302.78 C 1181.85 301.47 1168.11 298.09 1156.02 296.98 C 1143.94 295.86 1129.98 290.51 1139.75 280.75 C 1149.51 270.98 1150.98 266.67 1159.00 257.00
C 1149.63 264.81 1145.54 265.67 1135.75 274.75 C 1125.96 283.84 1121.49 271.42 1119.93 260.07 C 1118.37 248.73 1114.97 237.41 1113.00 226.00 C 1111.02 214.59 1108.94 202.40 1107.00 191.00 Z"/>
</g>
<g fill="#184A75" fill-opacity="1.00" stroke="None">
<path d="
M 369.00 1194.00 
C 369.33 1193.40 370.26 1192.33 371.00 1192.00
C 364.10 1212.94 364.44 1237.79 366.00 1259.00
C 376.73 1325.83 440.44 1373.95 503.00 1388.00
C 554.26 1314.44 642.46 1315.00 724.00 1315.00
C 729.72 1315.00 736.03 1315.52 741.00 1316.00
C 770.04 1316.40 811.10 1322.04 836.78 1310.78 C 862.46 1299.51 878.86 1285.21 900.75 1270.75 C 922.65 1256.30 941.50 1242.63 962.25 1228.25 C 983.01 1213.88 1003.49 1201.48 1020.75 1182.75 C 1038.01 1164.02 1050.53 1142.02 1065.23 1122.23 C 1079.93 1102.44 1091.56 1078.14 1106.08 1059.08 C 1120.60 1040.03 1138.43 1003.49 1110.07 990.93 C 1081.72 978.36 1060.27 1003.86 1043.25 1022.25 C 1026.22 1040.63 1012.98 1061.68 997.25 1081.25 C 981.53 1100.83 968.85 1120.52 946.08 1134.08 C 923.32 1147.64 902.60 1157.89 877.23 1169.23 C 851.86 1180.57 822.26 1188.95 792.00 1188.00 C 761.74 1187.05 724.61 1185.36 697.00 1197.00
C 710.74 1182.87 726.30 1172.59 745.99 1168.99 C 765.68 1165.40 791.93 1161.98 811.32 1157.32 C 830.72 1152.66 847.29 1143.21 862.25 1131.25 C 877.21 1119.29 885.10 1089.97 863.07 1082.93 C 841.05 1075.88 818.06 1087.73 796.00 1089.00 C 773.95 1090.28 748.14 1096.87 725.22 1093.78 C 702.30 1090.69 678.93 1086.81 656.00 1086.00 C 633.07 1085.19 608.13 1088.88 588.22 1095.22 C 568.32 1101.57 553.61 1110.94 536.75 1120.75 C 519.88 1130.55 508.41 1142.83 493.70 1154.70 C 478.98 1166.56 468.32 1178.76 454.00 1191.00
C 450.95 1194.05 448.28 1198.89 444.00 1200.00
C 443.73 1198.72 444.77 1197.28 446.00 1197.00
C 487.61 1112.05 578.90 1046.61 677.00 1061.00
C 657.37 1022.08 645.00 978.73 645.00 934.00
C 644.21 925.82 644.21 916.11 645.00 908.00
C 648.20 779.75 727.95 664.75 812.25 573.25 C 896.55 481.74 985.28 413.02 1082.00 342.00
C 1032.54 353.52 979.23 376.70 932.23 398.23 C 885.23 419.76 841.50 444.83 798.70 472.70 C 755.89 500.56 720.17 526.65 682.75 563.75 C 645.33 600.85 617.93 634.36 591.92 680.92 C 565.91 727.49 547.21 787.43 547.00 844.00 C 546.79 900.57 559.62 960.79 589.00 1009.00
C 531.75 1004.18 477.25 1054.24 476.00 1111.00
C 426.11 1107.68 382.24 1148.54 369.00 1194.00 Z"/>
</g>
<g fill="#194A74" fill-opacity="1.00" stroke="None">
<path d="
M 806.00 682.00 
C 797.75 690.25 789.20 698.80 781.00 707.00
C 770.21 720.39 758.60 731.41 748.25 745.25 C 737.91 759.10 728.25 772.12 719.31 787.31 C 710.36 802.49 701.99 817.09 694.93 833.93 C 687.86 850.76 681.52 868.38 676.98 886.98 C 672.43 905.57 668.73 928.91 668.00 949.00 C 667.27 969.09 669.27 996.02 673.22 1014.78 C 677.18 1033.54 681.31 1051.99 695.00 1064.00
C 683.05 1019.42 690.04 962.82 704.67 921.67 C 719.30 880.53 738.89 853.89 767.00 821.00
C 773.90 812.92 781.97 804.86 790.00 798.00
C 818.91 770.80 850.75 750.05 882.77 727.77 C 914.79 705.49 945.15 686.01 972.75 655.75 C 1000.36 625.49 1019.92 593.71 1033.07 554.07 C 1046.23 514.44 1057.02 461.58 1058.00 419.00
C 1001.66 526.27 897.79 603.56 806.00 682.00 Z"/>
</g>
<g fill="#184974" fill-opacity="1.00" stroke="None">
<path d="
M 841.00 1062.00 
C 846.69 1061.45 853.35 1061.32 859.00 1062.00
C 864.45 1061.35 869.21 1063.39 874.00 1065.00
C 881.00 1053.25 890.10 1042.91 897.23 1031.23 C 904.36 1019.55 890.27 1007.76 880.75 998.25 C 871.23 988.73 858.13 982.08 844.67 977.33 C 831.21 972.57 808.65 971.72 794.07 975.07 C 779.49 978.42 767.07 984.55 755.00 993.00
C 800.27 919.82 892.72 912.37 954.00 860.00
C 959.19 854.81 965.08 849.32 970.00 844.00
C 1008.77 797.75 1018.14 737.29 1020.00 678.00
C 1014.45 685.66 1009.15 694.54 1003.30 702.30 C 997.46 710.07 991.87 717.83 984.75 724.75 C 977.63 731.68 971.17 738.41 963.75 744.75 C 956.33 751.09 949.27 756.78 941.23 762.23 C 933.19 767.68 924.93 773.35 916.70 778.70 C 908.46 784.04 899.71 789.25 891.23 794.23 C 882.75 799.21 874.06 803.48 865.70 808.70 C 857.34 813.91 848.55 819.18 840.25 824.25 C 831.94 829.31 824.38 835.97 816.23 841.23 C 808.08 846.49 800.75 853.05 793.25 859.25 C 785.75 865.44 779.80 871.71 772.75 878.75 C 765.71 885.80 760.02 892.97 753.75 900.75 C 747.49 908.54 742.63 916.55 737.25 925.25 C 731.88 933.96 727.84 941.51 723.31 951.31 C 718.77 961.11 716.05 970.68 712.78 981.78 C 709.50 992.87 707.74 1003.15 705.78 1015.78 C 703.82 1028.41 704.59 1040.31 704.22 1054.78 C 703.85 1069.25 717.79 1066.81 729.93 1069.07 C 742.06 1071.33 755.49 1071.01 768.00 1070.00 C 780.51 1068.99 792.91 1067.84 805.00 1066.00 C 817.09 1064.16 828.64 1062.00 841.00 1062.00 Z"/>
</g>
<g fill="#8099A6" fill-opacity="1.00" stroke="None">
<path d="
M 781.00 707.00 
C 789.20 698.80 797.75 690.25 806.00 682.00
C 797.28 689.45 788.49 698.23 781.00 707.00 Z"/>
</g>
<g fill="#8DA4B2" fill-opacity="1.00" stroke="None">
<path d="
M 767.00 821.00 
C 774.54 813.46 782.41 805.59 790.00 798.00
C 781.97 804.86 773.90 812.92 767.00 821.00 Z"/>
</g>
<g fill="#86A4AF" fill-opacity="1.00" stroke="None">
<path d="
M 954.00 860.00 
C 959.54 855.26 965.43 849.79 970.00 844.00
C 965.08 849.32 959.19 854.81 954.00 860.00 Z"/>
</g>
<g fill="#98ABBD" fill-opacity="1.00" stroke="None">
<path d="
M 645.00 934.00 
C 645.00 925.33 645.00 916.67 645.00 908.00
C 644.21 916.11 644.21 925.82 645.00 934.00 Z"/>
</g>
<g fill="#16456F" fill-opacity="1.00" stroke="None">
<path d="
M 1057.00 986.00 
C 1034.87 954.88 998.78 984.51 984.92 1008.92 C 971.05 1033.33 952.29 1057.89 936.30 1081.30 C 920.31 1104.71 899.34 1124.62 880.00 1146.00
C 917.27 1132.08 953.41 1107.34 978.23 1075.23 C 1003.05 1043.12 1023.97 1010.48 1057.00 986.00 Z"/>
</g>
<g fill="#174772" fill-opacity="1.00" stroke="None">
<path d="
M 891.00 1065.00 
C 891.63 1062.33 892.74 1069.80 890.00 1071.00
C 897.55 1069.77 895.63 1077.66 893.00 1082.00
C 895.76 1088.93 897.66 1096.15 897.00 1104.00
C 928.79 1072.06 950.85 1033.35 976.00 997.00
C 956.05 984.83 934.01 1000.49 923.25 1017.25 C 912.50 1034.01 901.89 1048.47 891.00 1065.00 Z"/>
</g>
<g fill="#A5BABF" fill-opacity="1.00" stroke="None">
<path d="
M 841.00 1062.00 
C 847.00 1062.00 853.01 1061.88 859.00 1062.00
C 853.35 1061.32 846.69 1061.45 841.00 1062.00 Z"/>
</g>
<g fill="#1D3550" fill-opacity="1.00" stroke="None">
<path d="
M 891.00 1065.00 
C 890.30 1068.76 885.45 1070.25 885.00 1074.00
C 887.64 1076.23 891.29 1079.13 893.00 1082.00
C 895.63 1077.66 897.55 1069.77 890.00 1071.00
C 892.74 1069.80 891.63 1062.33 891.00 1065.00 Z"/>
</g>
<g fill="#A0B6C4" fill-opacity="1.00" stroke="None">
<path d="
M 446.00 1197.00 
C 444.77 1197.28 443.73 1198.72 444.00 1200.00
C 448.28 1198.89 450.95 1194.05 454.00 1191.00
C 451.93 1192.77 446.82 1196.22 446.00 1197.00 Z"/>
</g>
<g fill="#22385C" fill-opacity="1.00" stroke="None">
<path d="
M 369.00 1194.00 
C 362.82 1215.22 362.14 1237.46 366.00 1259.00
C 364.44 1237.79 364.10 1212.94 371.00 1192.00
C 370.26 1192.33 369.33 1193.40 369.00 1194.00 Z"/>
</g>
<g fill="#688492" fill-opacity="1.00" stroke="None">
<path d="
M 741.00 1316.00 
C 736.03 1315.52 729.72 1315.00 724.00 1315.00
C 728.97 1315.48 735.28 1316.00 741.00 1316.00 Z"/>
</g>
</svg>